<svg id="Layer_1" data-name="Layer 1" xmlns="http://www.w3.org/2000/svg" viewBox="0 0 512 512"><defs><style>.cls-1{fill:#e2e5e7;}.cls-2{fill:#b0b7bd;}.cls-3{fill:#cad1d8;}.cls-4{fill:#576d7e;}.cls-5{fill:#fff;}</style></defs><path class="cls-1" d="M128,0A32.09,32.09,0,0,0,96,32V480a32.09,32.09,0,0,0,32,32H448a32.09,32.09,0,0,0,32-32V128L352,0Z"/><path class="cls-2" d="M384,128h96L352,0V96A32.09,32.09,0,0,0,384,128Z"/><polygon class="cls-3" points="480 224 384 128 480 128 480 224"/><path class="cls-4" d="M416,416a16,16,0,0,1-16,16H48a16,16,0,0,1-16-16V256a16,16,0,0,1,16-16H400a16,16,0,0,1,16,16Z"/><path class="cls-3" d="M400,432H96v16H400a16,16,0,0,0,16-16V416A16,16,0,0,1,400,432Z"/><path class="cls-5" d="M199.9,316.84a34.81,34.81,0,0,1-.4-6,19.57,19.57,0,0,1,1.07-6,17.43,17.43,0,0,1,4.07-6.77,21.47,21.47,0,0,1,6.43-4.63,32,32,0,0,1,7.84-2.54,26.62,26.62,0,0,1,7.9-.28,27.92,27.92,0,0,1,7.57,2,25.81,25.81,0,0,1,6.94,4.34,19.72,19.72,0,0,1,5.24,7,22.74,22.74,0,0,1,1.92,8.3,27.18,27.18,0,0,1-1,8.52,27.84,27.84,0,0,1-3.56,7.84l-.11.23a27.47,27.47,0,0,1-4.4,4.68,47.69,47.69,0,0,0-4.63,4.46,10.15,10.15,0,0,0-2.93,5.25q-.47,2.65-.91,5.92a14.16,14.16,0,0,1-1.63,5.48q-1.31,2.31-4.8,2.2a4.67,4.67,0,0,1-3.55-1.53,8.43,8.43,0,0,1-1.7-3.38,13.67,13.67,0,0,1-.39-4.18c.07-1.46.18-2.76.34-3.89a26.11,26.11,0,0,1,2.48-7.51,36.75,36.75,0,0,1,4.4-6.71q1.47-1.69,2.94-3.1a29.49,29.49,0,0,0,2.7-3,20.15,20.15,0,0,0,2.15-3.38,13.75,13.75,0,0,0,1.24-4.18,9.62,9.62,0,0,0-.34-4.34,12.22,12.22,0,0,0-5.3-6.89,8.61,8.61,0,0,0-4.18-1.29,13.35,13.35,0,0,0-4.29.5,14.26,14.26,0,0,0-4.17,1.92,11.09,11.09,0,0,0-3.11,3.11,6.56,6.56,0,0,0-1.07,4.06,13.89,13.89,0,0,0,.51,2.76,19.84,19.84,0,0,1,.56,2.71,7,7,0,0,1-.11,2.54,4.69,4.69,0,0,1-1.52,2.37,5.74,5.74,0,0,1-4.07,1.86,6.4,6.4,0,0,1-3.72-1.29,10.83,10.83,0,0,1-2.88-3.22A11.3,11.3,0,0,1,199.9,316.84Zm32.5,56.32a8.3,8.3,0,0,1-2.48,5.87,7.44,7.44,0,0,1-5.53,2.48A7.33,7.33,0,0,1,219,379a8.75,8.75,0,0,1-2.37-5.87,8,8,0,0,1,2.37-5.87,7.17,7.17,0,0,1,5.42-2.59,7.28,7.28,0,0,1,5.53,2.59A8,8,0,0,1,232.4,373.16Z"/><path class="cls-5" d="M224.39,383a8.77,8.77,0,0,1-6.5-2.94,10.28,10.28,0,0,1-2.79-6.91,9.49,9.49,0,0,1,2.81-6.93,8.57,8.57,0,0,1,6.48-3,8.75,8.75,0,0,1,6.64,3.08,9.46,9.46,0,0,1,2.87,6.88,9.76,9.76,0,0,1-2.9,6.91A8.89,8.89,0,0,1,224.39,383Zm0-16.81a5.69,5.69,0,0,0-4.31,2.1,6.51,6.51,0,0,0-2,4.86,7.21,7.21,0,0,0,2,4.88,5.77,5.77,0,0,0,4.29,2,5.91,5.91,0,0,0,4.44-2,6.76,6.76,0,0,0,2.07-4.83,6.55,6.55,0,0,0-2-4.81A5.87,5.87,0,0,0,224.39,366.2Zm.42-7.79h-.36a6.15,6.15,0,0,1-4.65-2.06,10,10,0,0,1-2-4,15.29,15.29,0,0,1-.44-4.62c.08-1.51.19-2.86.35-4a28,28,0,0,1,2.63-8,38.58,38.58,0,0,1,4.58-7q1.53-1.77,3.06-3.23a29.7,29.7,0,0,0,2.56-2.84,18.85,18.85,0,0,0,2-3.13,12.4,12.4,0,0,0,1.09-3.72,8,8,0,0,0-.28-3.69,10.89,10.89,0,0,0-1.79-3.47,10.59,10.59,0,0,0-2.87-2.58,7.19,7.19,0,0,0-3.47-1.08,12.06,12.06,0,0,0-3.81.46,12.67,12.67,0,0,0-3.73,1.72,9.54,9.54,0,0,0-2.69,2.68,5.08,5.08,0,0,0-.83,3.16,13.45,13.45,0,0,0,.45,2.44,19.78,19.78,0,0,1,.61,2.92,8.73,8.73,0,0,1-.14,3.06,6.06,6.06,0,0,1-2,3.15,7,7,0,0,1-5.11,2.25,8,8,0,0,1-4.57-1.58,12.61,12.61,0,0,1-3.28-3.66,12.83,12.83,0,0,1-1.71-4.53v0a35.83,35.83,0,0,1-.42-6.24,20.77,20.77,0,0,1,1.16-6.44,18.75,18.75,0,0,1,4.4-7.32,23.32,23.32,0,0,1,6.87-4.95,33.61,33.61,0,0,1,8.21-2.65,28,28,0,0,1,8.35-.3,30,30,0,0,1,8,2.08,27.61,27.61,0,0,1,7.35,4.59,21.53,21.53,0,0,1,5.64,7.59,24.61,24.61,0,0,1,2,8.84,28.93,28.93,0,0,1-1.07,9,29.3,29.3,0,0,1-3.7,8.19l-.2.37a29,29,0,0,1-4.65,4.94,47,47,0,0,0-4.48,4.32,8.8,8.8,0,0,0-2.56,4.49c-.3,1.76-.61,3.73-.9,5.88a15.46,15.46,0,0,1-1.82,6C229.84,356.81,228.21,358.41,224.81,358.41Zm-.14-56.4.7,0a10.18,10.18,0,0,1,4.88,1.52,13.55,13.55,0,0,1,5.95,7.72,11,11,0,0,1,.39,5,15,15,0,0,1-1.38,4.61,21.15,21.15,0,0,1-2.31,3.64,31.19,31.19,0,0,1-2.84,3.15c-1,.91-1.91,1.92-2.85,3A35.14,35.14,0,0,0,223,337.1a25.21,25.21,0,0,0-2.35,7.08c-.13,1-.24,2.3-.31,3.72a12.23,12.23,0,0,0,.35,3.72,6.94,6.94,0,0,0,1.38,2.8,3.26,3.26,0,0,0,2.48,1c2.3.08,3.05-.78,3.42-1.44a12.66,12.66,0,0,0,1.45-4.89c.31-2.23.61-4.24.92-6a11.73,11.73,0,0,1,3.33-6,48.89,48.89,0,0,1,4.74-4.56,26.18,26.18,0,0,0,4.09-4.33l.14-.26a26.36,26.36,0,0,0,3.36-7.42,25.77,25.77,0,0,0,1-8.06,21.27,21.27,0,0,0-1.79-7.76,18.49,18.49,0,0,0-4.86-6.52A24.61,24.61,0,0,0,233.8,294a26.36,26.36,0,0,0-7.16-1.87,25.35,25.35,0,0,0-7.46.27,30.45,30.45,0,0,0-7.47,2.42,19.92,19.92,0,0,0-6,4.31,15.88,15.88,0,0,0-3.72,6.19,18.2,18.2,0,0,0-1,5.55,32.93,32.93,0,0,0,.38,5.72,9.86,9.86,0,0,0,1.33,3.47,9.29,9.29,0,0,0,2.48,2.78,4.93,4.93,0,0,0,2.87,1,4.47,4.47,0,0,0,3-1.46,3.31,3.31,0,0,0,1.09-1.61,6.14,6.14,0,0,0,.09-2,18.09,18.09,0,0,0-.53-2.5,16.75,16.75,0,0,1-.55-3.05,8.08,8.08,0,0,1,1.31-5,12.68,12.68,0,0,1,3.52-3.52,15.58,15.58,0,0,1,4.61-2.12A15.26,15.26,0,0,1,224.67,302Z"/></svg>