<svg xmlns="http://www.w3.org/2000/svg" xmlns:xlink="http://www.w3.org/1999/xlink" viewBox="0 0 286.58 286.58"><defs><style>.cls-1{fill:url(#linear-gradient);}.cls-2{fill:#fff;}</style><linearGradient id="linear-gradient" x1="143.29" y1="286.58" x2="143.29" gradientUnits="userSpaceOnUse"><stop offset="0" stop-color="#0d4fcb"/><stop offset="1" stop-color="#7fd6ff"/></linearGradient></defs><g id="Layer_2" data-name="Layer 2"><g id="Layer_1-2" data-name="Layer 1"><circle class="cls-1" cx="143.29" cy="143.29" r="143.29"/><path class="cls-2" d="M149.12,70.41a2.91,2.91,0,0,0-2.91,2.91v64.06a2.91,2.91,0,0,0,2.91,2.91h64.06a2.91,2.91,0,0,0,2.91-2.91A67,67,0,0,0,149.12,70.41Z"/><path class="cls-2" d="M174.69,199.67l-40.15-51.62V85a2.91,2.91,0,0,0-2.91-2.91c-33.72,0-61.14,30-61.14,67a67,67,0,0,0,67,67,49.77,49.77,0,0,0,36.79-12.31A2.91,2.91,0,0,0,174.69,199.67Z"/><path class="cls-2" d="M213.18,150.46H155a2.92,2.92,0,0,0-2.27,4.74l37.85,46.85a2.9,2.9,0,0,0,2.06,1.08h.21a2.92,2.92,0,0,0,2-.78,67.18,67.18,0,0,0,21.31-49A2.91,2.91,0,0,0,213.18,150.46Z"/></g></g></svg>