<svg xmlns="http://www.w3.org/2000/svg" xmlns:xlink="http://www.w3.org/1999/xlink" viewBox="0 0 286.58 286.58"><defs><style>.cls-1{fill:url(#linear-gradient);}.cls-2{fill:#fff;}</style><linearGradient id="linear-gradient" x1="143.29" y1="286.58" x2="143.29" gradientUnits="userSpaceOnUse"><stop offset="0" stop-color="#0d4fcb"/><stop offset="1" stop-color="#7fd6ff"/></linearGradient></defs><g id="Layer_2" data-name="Layer 2"><g id="Layer_1-2" data-name="Layer 1"><circle class="cls-1" cx="143.29" cy="143.29" r="143.29"/><path class="cls-2" d="M180,71.91l-6-3.13a18.93,18.93,0,0,0-25.51,8.11L141.19,90.8,114,143.24l-14,26.93a7.14,7.14,0,0,0-.46,1.19h0a15.45,15.45,0,0,0-1,4.45L96.37,213a6.54,6.54,0,0,0,10.61,5.5l29-23.26a15.88,15.88,0,0,0,3.15-3.4h0a6.26,6.26,0,0,0,.73-1.11l13.93-26.89,27.16-52.43,7.17-13.86A19,19,0,0,0,180,71.91Z"/></g></g></svg>