<svg xmlns="http://www.w3.org/2000/svg" xmlns:xlink="http://www.w3.org/1999/xlink" viewBox="0 0 286.58 286.58"><defs><style>.cls-1{fill:url(#linear-gradient);}.cls-2{fill:#00f4d6;}</style><linearGradient id="linear-gradient" x1="143.29" y1="286.58" x2="143.29" gradientUnits="userSpaceOnUse"><stop offset="0" stop-color="#003d3f"/><stop offset="1" stop-color="#027caa"/></linearGradient></defs><g id="Layer_2" data-name="Layer 2"><g id="Layer_1-2" data-name="Layer 1"><circle class="cls-1" cx="143.29" cy="143.29" r="143.29"/><path class="cls-2" d="M77.33,174.13c-14.72,0-23.67-7.77-23.84-19.47H71.4c0,4,2.75,5.77,6.27,5.77,2.72,0,5.3-1.39,5.3-4.18,0-3.12-4.09-4-9.27-4.86-8.38-1.36-19.48-3.89-19.48-17,0-10.82,9.23-17.81,23.06-17.81s22.67,7.32,22.88,18.26H82.74c0-3.45-2.32-5-5.69-5-3,0-5,1.47-5,4,0,3.07,4.13,3.78,9.26,4.7,8.53,1.52,19.87,3.29,19.87,17,0,11.29-9.52,18.67-23.88,18.67Z"/><path class="cls-2" d="M166.43,118.36l-21.71,54H127.87l-22-54h20.38l10.21,32,10.09-32Z"/><path class="cls-2" d="M230,118.36v48c0,17-11.11,27.49-28.94,27.49-15.33,0-26.06-7.73-28.54-20.53h17.95c1.29,3.61,5.9,5.56,10.41,5.56,6.24,0,11.25-4,11.25-10.38v-1.62a26.14,26.14,0,0,1-14.1,4.06c-15.48,0-27-11.52-27-27.15,0-15.39,11.5-27.16,27-27.16a26.08,26.08,0,0,1,17,6.26l2.36-4.53Zm-28.88,37.26c6.68,0,11.49-5,11.49-11.83S207.86,132,201.16,132s-11.53,4.95-11.53,11.77,4.8,11.83,11.53,11.83Z"/></g></g></svg>