<svg xmlns="http://www.w3.org/2000/svg" xmlns:xlink="http://www.w3.org/1999/xlink" viewBox="0 0 286.58 286.58"><defs><style>.cls-1{fill:url(#linear-gradient);}.cls-2{fill:url(#linear-gradient-2);}.cls-3{fill:#cccbcb;}</style><linearGradient id="linear-gradient" x1="143.29" y1="286.58" x2="143.29" gradientUnits="userSpaceOnUse"><stop offset="0" stop-color="#191919"/><stop offset="1" stop-color="#4d4e4e"/></linearGradient><linearGradient id="linear-gradient-2" x1="143.29" y1="206.53" x2="143.29" y2="80.05" gradientUnits="userSpaceOnUse"><stop offset="0" stop-color="#660402"/><stop offset="1" stop-color="#ec1e24"/></linearGradient></defs><g id="Layer_2" data-name="Layer 2"><g id="Layer_1-2" data-name="Layer 1"><circle class="cls-1" cx="143.29" cy="143.29" r="143.29"/><circle class="cls-2" cx="143.29" cy="143.29" r="63.24"/><path class="cls-3" d="M160.29,58.48l12.92-4.73-13.4-3.14a83,83,0,0,0-42.6,1.25l-1.24.37-.8,1c-6.68,8.37-13,16.93-17.14,29.58l-3.2,9.82.71-.38a69.6,69.6,0,0,1,36.34-17.93A104.6,104.6,0,0,1,160.29,58.48Z"/><path class="cls-3" d="M126.29,228.1l-12.93,4.73L126.77,236a82.88,82.88,0,0,0,42.6-1.24l1.23-.37.81-1c6.68-8.37,13-16.93,17.14-29.58l3.2-9.82-.71.38a69.67,69.67,0,0,1-36.34,17.93A104.6,104.6,0,0,1,126.29,228.1Z"/><path class="cls-3" d="M215.28,95.34l12.48,5.8-7.26-11.7a82.88,82.88,0,0,0-31-29.24l-1.13-.61-1.28.14c-10.64,1.19-21.18,2.76-33,8.8l-9.2,4.68.78.23a69.49,69.49,0,0,1,38.35,13A104.53,104.53,0,0,1,215.28,95.34Z"/><path class="cls-3" d="M71.3,191.24l-12.48-5.8,7.25,11.7a83,83,0,0,0,31,29.24l1.14.61,1.28-.14c10.64-1.19,21.18-2.77,33-8.8l9.2-4.68-.79-.23a69.49,69.49,0,0,1-38.34-13A104.45,104.45,0,0,1,71.3,191.24Z"/><path class="cls-3" d="M234.72,117.21l-.37-1.24-1-.8c-8.37-6.68-16.93-13-29.59-17.14l-9.81-3.2.38.71a69.6,69.6,0,0,1,17.93,36.34,104.6,104.6,0,0,1,15.85,28.41l4.73,12.92,3.14-13.4A83,83,0,0,0,234.72,117.21Z"/><path class="cls-3" d="M58.48,126.29l-4.73-12.93-3.14,13.41a82.92,82.92,0,0,0,1.25,42.6l.37,1.24,1,.8c8.37,6.68,16.93,13,29.58,17.14l9.82,3.2-.38-.71A69.6,69.6,0,0,1,74.33,154.7,104.6,104.6,0,0,1,58.48,126.29Z"/><path class="cls-3" d="M191.24,215.28l-5.8,12.48,11.7-7.26a83,83,0,0,0,29.24-31l.61-1.13-.14-1.28c-1.2-10.64-2.77-21.18-8.8-33l-4.68-9.2-.23.78a69.49,69.49,0,0,1-13,38.35A104.53,104.53,0,0,1,191.24,215.28Z"/><path class="cls-3" d="M95.34,71.3l5.8-12.49-11.7,7.26a83,83,0,0,0-29.24,31l-.61,1.14.14,1.28c1.19,10.64,2.76,21.18,8.8,33l4.68,9.2.23-.78a69.49,69.49,0,0,1,13-38.35A104.45,104.45,0,0,1,95.34,71.3Z"/></g></g></svg>