<svg xmlns="http://www.w3.org/2000/svg" xmlns:xlink="http://www.w3.org/1999/xlink" viewBox="0 0 286.58 286.58"><defs><style>.cls-1{fill:url(#linear-gradient);}.cls-2{fill:#00f4d6;}</style><linearGradient id="linear-gradient" x1="143.29" y1="286.58" x2="143.29" gradientUnits="userSpaceOnUse"><stop offset="0" stop-color="#003d3f"/><stop offset="1" stop-color="#027caa"/></linearGradient></defs><g id="Layer_2" data-name="Layer 2"><g id="Layer_1-2" data-name="Layer 1"><circle class="cls-1" cx="143.29" cy="143.29" r="143.29"/><path class="cls-2" d="M110.81,153.2v16.54H64.18V167l20.69-34.82H66V115.73H110.6v3L90.2,153.2Z"/><path class="cls-2" d="M123.59,115.73h18.6v54h-18.6Zm.14-22.54h18.32V109H123.73Z"/><path class="cls-2" d="M217.76,142.74c0,16.82-11.8,28.83-28.32,28.83A25.26,25.26,0,0,1,176.28,168v21.26H157.89V115.73h12.65l2.33,4.3A25,25,0,0,1,189.44,114C206,114,217.76,125.91,217.76,142.74Zm-18.72,0c0-7.1-5.12-12.36-12.08-12.36s-12.09,5.26-12.09,12.36S180,155.1,187,155.1,199,149.83,199,142.74Z"/></g></g></svg>