<svg xmlns="http://www.w3.org/2000/svg" xmlns:xlink="http://www.w3.org/1999/xlink" viewBox="0 0 286.58 286.58"><defs><style>.cls-1{fill:url(#linear-gradient);}.cls-2{fill:#00f4d6;}</style><linearGradient id="linear-gradient" x1="143.29" y1="286.58" x2="143.29" gradientUnits="userSpaceOnUse"><stop offset="0" stop-color="#003d3f"/><stop offset="1" stop-color="#027caa"/></linearGradient></defs><g id="Layer_2" data-name="Layer 2"><g id="Layer_1-2" data-name="Layer 1"><circle class="cls-1" cx="143.29" cy="143.29" r="143.29"/><path class="cls-2" d="M107.9,145.06a34.54,34.54,0,0,1-.38,4.93H67.42c1.22,6.19,5.15,9.4,11,9.4,4.35,0,8-1.91,9.77-5.07h18.51c-3.8,12.33-14.73,20-28.28,20-16.85,0-29.33-12.32-29.33-28.82S61.5,116.8,78.44,116.8c17.41,0,29.47,12.42,29.47,28.26Zm-40.15-5.37H89.58c-1.63-5.4-5.52-8.31-11.14-8.31C73,131.38,69.25,134.32,67.75,139.69Z"/><path class="cls-2" d="M180.23,145.57c0,16.83-11.81,28.83-28.32,28.83a25.25,25.25,0,0,1-13.16-3.58v21.26H120.36V118.57H133l2.33,4.29a25,25,0,0,1,16.57-6.06C168.42,116.8,180.23,128.75,180.23,145.57Zm-18.72,0c0-7.09-5.12-12.36-12.09-12.36s-12.09,5.27-12.09,12.36,5.12,12.36,12.09,12.36S161.51,152.67,161.51,145.57Z"/><path class="cls-2" d="M213.59,174.35c-14.72,0-23.66-7.78-23.83-19.48h17.9c0,3.95,2.75,5.77,6.28,5.77,2.72,0,5.3-1.39,5.3-4.18,0-3.12-4.09-4-9.28-4.86-8.37-1.36-19.47-3.89-19.47-17,0-10.83,9.22-17.82,23.06-17.82s22.66,7.32,22.87,18.26H219c0-3.45-2.31-5.05-5.68-5.05-3,0-5,1.48-5,4,0,3.07,4.13,3.79,9.26,4.7,8.53,1.52,19.88,3.29,19.88,17,0,11.28-9.53,18.67-23.88,18.67Z"/></g></g></svg>