<svg xmlns="http://www.w3.org/2000/svg" xmlns:xlink="http://www.w3.org/1999/xlink" viewBox="0 0 286.58 286.58"><defs><style>.cls-1{fill:url(#linear-gradient);}.cls-2{fill:#9c85dd;}</style><linearGradient id="linear-gradient" x1="143.29" y1="286.58" x2="143.29" gradientUnits="userSpaceOnUse"><stop offset="0" stop-color="#1b003f"/><stop offset="1" stop-color="#00087f"/></linearGradient></defs><g id="Layer_2" data-name="Layer 2"><g id="Layer_1-2" data-name="Layer 1"><circle class="cls-1" cx="143.29" cy="143.29" r="143.29"/><path class="cls-2" d="M86.12,95.43h24.43v87.5H86.12Z"/><path class="cls-2" d="M201.65,91.05v91.88H184.44l-2.19-5a31.23,31.23,0,0,1-20.36,7.29c-20.71,0-35.47-15.05-35.47-36s14.76-36,35.47-36a31.56,31.56,0,0,1,16.77,4.68V91.05Zm-21.54,58.13c0-8.81-6.4-15.45-15.11-15.45s-15.11,6.64-15.11,15.45,6.4,15.45,15.11,15.45S180.11,158,180.11,149.18Z"/></g></g></svg>