<svg xmlns="http://www.w3.org/2000/svg" xmlns:xlink="http://www.w3.org/1999/xlink" viewBox="0 0 286.58 286.58"><defs><style>.cls-1{fill:url(#linear-gradient);}.cls-2{fill:#9c85dd;}</style><linearGradient id="linear-gradient" x1="143.29" y1="286.58" x2="143.29" gradientUnits="userSpaceOnUse"><stop offset="0" stop-color="#1b003f"/><stop offset="1" stop-color="#00087f"/></linearGradient></defs><g id="Layer_2" data-name="Layer 2"><g id="Layer_1-2" data-name="Layer 1"><circle class="cls-1" cx="143.29" cy="143.29" r="143.29"/><path class="cls-2" d="M145.23,127c0,18.35-13.82,31.72-32.42,31.72H99.72v24.17H75.56V95.43h37.25C131.41,95.43,145.23,108.7,145.23,127Zm-24.78.06c0-6.22-4.18-10.62-10.53-10.62H99.72v21.23h10.2C116.27,137.71,120.45,133.32,120.45,127.1Z"/><path class="cls-2" d="M186.08,185.14c-18.39,0-29.58-9.72-29.79-24.34h22.38c0,4.94,3.44,7.21,7.85,7.21,3.4,0,6.62-1.74,6.62-5.22,0-3.9-5.11-5-11.59-6.08-10.47-1.7-24.34-4.86-24.34-21.23,0-13.53,11.52-22.26,28.82-22.26s28.33,9.14,28.59,22.82H192.85c0-4.31-2.9-6.31-7.11-6.31-3.73,0-6.23,1.84-6.23,5,0,3.84,5.16,4.73,11.57,5.88,10.67,1.89,24.84,4.11,24.84,21.23,0,14.1-11.9,23.33-29.84,23.33Z"/></g></g></svg>