<svg xmlns="http://www.w3.org/2000/svg" xmlns:xlink="http://www.w3.org/1999/xlink" viewBox="0 0 286.58 286.58"><defs><style>.cls-1{fill:url(#linear-gradient);}.cls-2{fill:#9c85dd;}</style><linearGradient id="linear-gradient" x1="143.29" y1="286.58" x2="143.29" gradientUnits="userSpaceOnUse"><stop offset="0" stop-color="#1b003f"/><stop offset="1" stop-color="#00087f"/></linearGradient></defs><g id="Layer_2" data-name="Layer 2"><g id="Layer_1-2" data-name="Layer 1"><circle class="cls-1" cx="143.29" cy="143.29" r="143.29"/><path class="cls-2" d="M153.67,127c0,18.35-13.82,31.72-32.42,31.72H108.16v24.17H84V95.43h37.25C139.85,95.43,153.67,108.7,153.67,127Zm-24.78.06c0-6.22-4.18-10.62-10.53-10.62h-10.2v21.23h10.2C124.71,137.71,128.89,133.32,128.89,127.1Z"/><path class="cls-2" d="M212.43,115.11v21.27h-9c-8.23,0-11.68,3.61-11.68,12.23v34.32H168.48v-67.5h15.57l3.63,7.49c4.76-5.51,10.56-7.81,18.59-7.81Z"/></g></g></svg>