<svg xmlns="http://www.w3.org/2000/svg" xmlns:xlink="http://www.w3.org/1999/xlink" viewBox="0 0 286.58 286.58"><defs><style>.cls-1{fill:url(#linear-gradient);}.cls-2{fill:#00f4d6;}</style><linearGradient id="linear-gradient" x1="143.29" y1="286.58" x2="143.29" gradientUnits="userSpaceOnUse"><stop offset="0" stop-color="#003d3f"/><stop offset="1" stop-color="#027caa"/></linearGradient></defs><g id="Layer_2" data-name="Layer 2"><g id="Layer_1-2" data-name="Layer 1"><circle class="cls-1" cx="143.29" cy="143.29" r="143.29"/><path class="cls-2" d="M233.21,114.87a11.1,11.1,0,1,1-15.7,15.7,105.09,105.09,0,0,0-148.44,0,11.11,11.11,0,0,1-15.71-15.7A127.3,127.3,0,0,1,233.21,114.87ZM90.12,151.61a11.11,11.11,0,0,0,15.7,15.71,53.06,53.06,0,0,1,75,0,11.11,11.11,0,0,0,15.71-15.71A75.3,75.3,0,0,0,90.12,151.61Zm41.44,29a16.59,16.59,0,1,0,23.46,0A16.58,16.58,0,0,0,131.56,180.59Z"/></g></g></svg>