<svg xmlns="http://www.w3.org/2000/svg" xmlns:xlink="http://www.w3.org/1999/xlink" viewBox="0 0 286.58 286.58"><defs><style>.cls-1{fill:url(#linear-gradient);}.cls-2{fill:#9c85dd;}</style><linearGradient id="linear-gradient" x1="143.29" y1="286.58" x2="143.29" gradientUnits="userSpaceOnUse"><stop offset="0" stop-color="#1b003f"/><stop offset="1" stop-color="#00087f"/></linearGradient></defs><g id="Layer_2" data-name="Layer 2"><g id="Layer_1-2" data-name="Layer 1"><circle class="cls-1" cx="143.29" cy="143.29" r="143.29"/><path class="cls-2" d="M114.88,182.93l-14.39-26.88L85.94,182.93H58.59l26.32-45.55L60.06,95.43H87.25l13.12,24.76L113.6,95.43h26.82l-24.57,42.39,26.33,45.11Z"/><path class="cls-2" d="M220.46,91.05v91.88H203.25l-2.19-5a31.23,31.23,0,0,1-20.36,7.29c-20.71,0-35.46-15.05-35.46-36s14.75-36,35.46-36a31.54,31.54,0,0,1,16.77,4.68V91.05Zm-21.54,58.13c0-8.81-6.4-15.45-15.11-15.45s-15.11,6.64-15.11,15.45,6.4,15.45,15.11,15.45S198.92,158,198.92,149.18Z"/></g></g></svg>