<svg xmlns="http://www.w3.org/2000/svg" xmlns:xlink="http://www.w3.org/1999/xlink" viewBox="0 0 286.58 286.58"><defs><style>.cls-1{fill:url(#linear-gradient);}.cls-2{fill:#9c85dd;}</style><linearGradient id="linear-gradient" x1="143.29" y1="286.58" x2="143.29" gradientUnits="userSpaceOnUse"><stop offset="0" stop-color="#1b003f"/><stop offset="1" stop-color="#00087f"/></linearGradient></defs><g id="Layer_2" data-name="Layer 2"><g id="Layer_1-2" data-name="Layer 1"><circle class="cls-1" cx="143.29" cy="143.29" r="143.29"/><path class="cls-2" d="M117,168.72h-31L81.1,182.93H55.26l34.38-87.5H113.2l35.12,87.5H121.78Zm-15.56-46-9.59,27.12h19.27Z"/><path class="cls-2" d="M228,148.54a43.16,43.16,0,0,1-.48,6.16H177.43c1.52,7.74,6.44,11.74,13.78,11.74,5.43,0,10-2.37,12.2-6.33h23.14c-4.75,15.41-18.41,25-35.34,25-21.06,0-36.66-15.39-36.66-36s15.47-35.91,36.66-35.91c21.76,0,36.82,15.52,36.82,35.32Zm-50.19-6.72h27.29c-2-6.74-6.91-10.38-13.92-10.38C184.43,131.44,179.72,135.12,177.84,141.82Z"/></g></g></svg>