<svg xmlns="http://www.w3.org/2000/svg" xmlns:xlink="http://www.w3.org/1999/xlink" viewBox="0 0 286.58 286.58"><defs><style>.cls-1{fill:url(#linear-gradient);}.cls-2{fill:#9c85dd;}</style><linearGradient id="linear-gradient" x1="143.29" y1="286.58" x2="143.29" gradientUnits="userSpaceOnUse"><stop offset="0" stop-color="#1b003f"/><stop offset="1" stop-color="#00087f"/></linearGradient></defs><g id="Layer_2" data-name="Layer 2"><g id="Layer_1-2" data-name="Layer 1"><circle class="cls-1" cx="143.29" cy="143.29" r="143.29"/><path class="cls-2" d="M112.56,144.26c0,16.82-11.81,28.83-28.32,28.83a25.32,25.32,0,0,1-13.17-3.59v21.26H52.69v-73.5H65.33l2.33,4.29a25,25,0,0,1,16.58-6.06C100.75,115.49,112.56,127.43,112.56,144.26Zm-18.72,0c0-7.1-5.12-12.36-12.09-12.36s-12.09,5.26-12.09,12.36,5.12,12.36,12.09,12.36S93.84,151.35,93.84,144.26Z"/><path class="cls-2" d="M182.12,97.76v73.5H168.36l-1.76-4a25,25,0,0,1-16.29,5.84c-16.57,0-28.37-12.05-28.37-28.83s11.8-28.77,28.37-28.77a25.16,25.16,0,0,1,13.42,3.75V97.76Zm-17.23,46.5c0-7-5.12-12.36-12.09-12.36s-12.09,5.31-12.09,12.36,5.12,12.36,12.09,12.36S164.89,151.31,164.89,144.26Z"/><path class="cls-2" d="M233.89,132.75H221.78v38.51h-18.6V132.75h-8.93l0-14.61h9.2V113c0-10.82,5.94-17.15,17.4-17.15h13v14.26h-8.21a4,4,0,0,0-4.41,4.4v3.66h12.72Z"/></g></g></svg>